<svg height="512" viewBox="0 0 64 64" width="512" xmlns="http://www.w3.org/2000/svg"><g id="Flask"><path d="m40.671 48.566-8.717-13.643a2 2 0 0 0 -1.685-.923h-1.769a7.5 7.5 0 0 0 -4.5 1.5 7.5 7.5 0 0 1 -4.5 1.5h-3.685a2 2 0 0 0 -1.686.923l-6.8 10.645a6.233 6.233 0 0 0 -.356 6.279 5.924 5.924 0 0 0 5.283 3.153h23.488a5.924 5.924 0 0 0 5.283-3.154 6.235 6.235 0 0 0 -.356-6.28z" fill="#4370ff"/><circle cx="58.5" cy="15.5" fill="#4370ff" r="2.5"/><circle cx="8" cy="21" fill="#4370ff" r="3"/><circle cx="44" cy="5" fill="#4370ff" r="3"/><circle cx="37.5" cy="15.5" fill="#4370ff" r="2.5"/><g fill="none"><circle cx="32.239" cy="44.979" r="1"/><circle cx="8" cy="21" r="2"/><path d="m25.739 53a1.011 1.011 0 1 0 -1.01-1.01 1.012 1.012 0 0 0 1.01 1.01z"/><circle cx="37.5" cy="15.5" r="1.5"/><circle cx="58.5" cy="15.5" r="1.5"/><circle cx="44" cy="5" r="2"/><circle cx="16.12" cy="46.479" r="1.12"/><path d="m14.972 38.462-6.8 10.644a5.211 5.211 0 0 0 -.318 5.266 4.93 4.93 0 0 0 4.402 2.628h23.488a4.93 4.93 0 0 0 4.4-2.629 5.212 5.212 0 0 0 -.318-5.267l-8.715-13.643a1 1 0 0 0 -.842-.461h-1.769a6.544 6.544 0 0 0 -3.9 1.3 8.556 8.556 0 0 1 -5.1 1.7h-3.685a1 1 0 0 0 -.843.462zm21.267 13.517a1 1 0 1 1 -1 1 1 1 0 0 1 1-1zm-4-10a3 3 0 1 1 -3 3 3 3 0 0 1 3-3zm-7 1a1 1 0 1 1 -1 1 1 1 0 0 1 1-1zm.5 6a3.011 3.011 0 1 1 -3.01 3.011 3.015 3.015 0 0 1 3.01-3.011zm-13.5 5a1 1 0 1 1 1-1 1 1 0 0 1 -1 1zm7-7.5a3.12 3.12 0 1 1 -3.119-3.12 3.123 3.123 0 0 1 3.119 3.12z"/></g><path d="m1.414 2.879h2v2h-2z" transform="matrix(.707 -.707 .707 .707 -2.036 2.844)"/><path d="m7.121 7.121h2v2h-2z" transform="matrix(.707 -.707 .707 .707 -3.364 8.123)"/><path d="m1.414 7.121h2v2h-2z" transform="matrix(.707 -.707 .707 .707 -5.035 4.086)"/><path d="m7.121 2.879h2v2h-2z" transform="matrix(.707 -.707 .707 .707 -.364 6.879)"/><path d="m54.879 2.879h2v2h-2z" transform="matrix(.707 -.707 .707 .707 13.63 40.656)"/><path d="m59.121 7.121h2v2h-2z" transform="matrix(.707 -.707 .707 .707 11.873 44.899)"/><path d="m54.879 7.121h2v2h-2z" transform="matrix(.707 -.707 .707 .707 10.624 41.891)"/><path d="m59.121 2.879h2v2h-2z" transform="matrix(.707 -.707 .707 .707 14.866 43.648)"/><path d="m13.287 37.385-6.801 10.645a7.212 7.212 0 0 0 -.393 7.291 6.906 6.906 0 0 0 6.163 3.679h23.488a6.9 6.9 0 0 0 6.163-3.68 7.216 7.216 0 0 0 -.393-7.292l-8.714-13.644a2.99 2.99 0 0 0 -2.531-1.384h-1.769a8.556 8.556 0 0 0 -5.1 1.7 6.544 6.544 0 0 1 -3.9 1.3h-3.685a2.99 2.99 0 0 0 -2.528 1.385zm11.313-1.085a6.544 6.544 0 0 1 3.9-1.3h1.769a1 1 0 0 1 .842.461l8.717 13.639a5.212 5.212 0 0 1 .318 5.267 4.93 4.93 0 0 1 -4.402 2.633h-23.488a4.93 4.93 0 0 1 -4.4-2.628 5.211 5.211 0 0 1 .318-5.266l6.8-10.644a1 1 0 0 1 .841-.462h3.685a8.556 8.556 0 0 0 5.1-1.7z"/><path d="m45.014 46.078-12.542-19.633a2.984 2.984 0 0 1 -.472-1.614v-13.831h-5v2h3v2h-3v2h3v2h-3v2h3v2h-3v2h3.012a4.97 4.97 0 0 0 .775 2.522l12.542 19.632a9 9 0 0 1 -7.584 13.846h-23.49a9 9 0 0 1 -7.584-13.846l12.542-19.631a4.981 4.981 0 0 0 .787-2.692v-15.831h14a4 4 0 0 0 0-8h-14.009v2h14.009a2 2 0 0 1 0 4h-16a2 2 0 0 1 0-4v-2a4 4 0 0 0 0 8v15.831a2.99 2.99 0 0 1 -.472 1.615l-12.542 19.632a11 11 0 0 0 9.269 16.922h23.49a11 11 0 0 0 9.269-16.922z"/><path d="m13 46.479a3.12 3.12 0 1 0 3.12-3.12 3.124 3.124 0 0 0 -3.12 3.12zm3.12-1.12a1.121 1.121 0 1 1 -1.12 1.12 1.121 1.121 0 0 1 1.12-1.12z"/><circle cx="12.239" cy="52.979" r="1"/><circle cx="25.239" cy="43.979" r="1"/><circle cx="36.239" cy="52.979" r="1"/><path d="m25.739 55a3.011 3.011 0 1 0 -3.01-3.01 3.015 3.015 0 0 0 3.01 3.01zm0-4.021a1.011 1.011 0 1 1 -1.01 1.011 1.013 1.013 0 0 1 1.01-1.011z"/><path d="m32.239 47.979a3 3 0 1 0 -3-3 3 3 0 0 0 3 3zm0-4a1 1 0 1 1 -1 1 1 1 0 0 1 1-1z"/><path d="m59.5 22h-25.5v2h25.5a1.5 1.5 0 0 1 0 3h-23.5v2h21.866v2h-5.866v2h5.866v2h-2.866v2h2.866v2h-5.866v2h5.866v2h-2.866v2h2.866v2h-5.866v2h5.866v2h-2.866v2h2.866v2h-5.866v2h5.866v1a3 3 0 0 1 -3 3h-10.866v2h10.866a5.006 5.006 0 0 0 5-5v-29.037a3.491 3.491 0 0 0 -.366-6.963z"/><path d="m55 15.5a3.5 3.5 0 1 0 3.5-3.5 3.5 3.5 0 0 0 -3.5 3.5zm3.5-1.5a1.5 1.5 0 1 1 -1.5 1.5 1.5 1.5 0 0 1 1.5-1.5z"/><path d="m4 21a4 4 0 1 0 4-4 4 4 0 0 0 -4 4zm6 0a2 2 0 1 1 -2-2 2 2 0 0 1 2 2z"/><path d="m44 9a4 4 0 1 0 -4-4 4 4 0 0 0 4 4zm0-6a2 2 0 1 1 -2 2 2 2 0 0 1 2-2z"/><path d="m34 15.5a3.5 3.5 0 1 0 3.5-3.5 3.5 3.5 0 0 0 -3.5 3.5zm3.5-1.5a1.5 1.5 0 1 1 -1.5 1.5 1.5 1.5 0 0 1 1.5-1.5z"/><path d="m43 17h2v2h-2z"/><path d="m47 17h2v2h-2z"/><path d="m51 17h2v2h-2z"/></g></svg>