<svg id="Layer_5" enable-background="new 0 0 64 64" height="512" viewBox="0 0 64 64" width="512" xmlns="http://www.w3.org/2000/svg"><g><g><g><path d="m53 50v2c0 1.1-.9 2-2 2h-21v-6h16 5c1.1 0 2 .9 2 2z" fill="#969faa"/></g><g><path d="m46 48h-16v-6h13v.39c0 2.26 1.13 4.36 3 5.61z" fill="#aab2bd"/></g><g><path d="m58 2h-44c-2.21 0-4 1.79-4 4v10 26h33 15c2.21 0 4-1.79 4-4v-32c0-2.21-1.79-4-4-4z" fill="#ccd1d9"/></g><g><path d="m58 7v26c0 .55-.45 1-1 1h-27v-10-4c0-2.21-1.79-4-4-4h-6-6v-9c0-.55.45-1 1-1h42c.55 0 1 .45 1 1z" fill="#4fc1e9"/></g><g><path d="m16 24h-14v-4c0-2.21 1.79-4 4-4h4 2v4c0 2.21 1.79 4 4 4z" fill="#969faa"/></g><g><path d="m30 20v4h-14c1.1 0 2.1-.45 2.83-1.17.72-.73 1.17-1.73 1.17-2.83v-4h6c2.21 0 4 1.79 4 4z" fill="#969faa"/></g><g><path d="m30 54v4c0 2.21-1.79 4-4 4h-20c-2.21 0-4-1.79-4-4v-4z" fill="#969faa"/></g><g><path d="m30 48v6h-28v-30h14 14v10 8z" fill="#69d6f4"/></g><g><circle cx="8" cy="48" fill="#ff826e" r="2"/></g><g><circle cx="8" cy="40" fill="#ff826e" r="2"/></g><g><circle cx="16" cy="40" fill="#ff826e" r="2"/></g><g><circle cx="16" cy="48" fill="#ff826e" r="2"/></g><g><circle cx="24" cy="48" fill="#ff826e" r="2"/></g><g><circle cx="24" cy="40" fill="#ff826e" r="2"/></g><g><path d="m27 31-5 3v-6z" fill="#ff826e"/></g><g><circle cx="38" cy="20.1" fill="#fcd770" r="2"/></g><g><path d="m20 16v4c0 1.1-.45 2.1-1.17 2.83-.73.72-1.73 1.17-2.83 1.17-2.21 0-4-1.79-4-4v-4h2z" fill="#fcd770"/></g><g><path d="m10 28v6l-5-3z" fill="#ff826e"/></g></g><g><circle cx="16" cy="20" r="1"/><circle cx="26" cy="20" r="1"/><path d="m12 57h8v2h-8z"/><path d="m5 57h2v2h-2z"/><path d="m25 57h2v2h-2z"/><path d="m49 37h2v2h-2z"/><path d="m57 37h2v2h-2z"/><path d="m53 37h2v2h-2z"/><path d="m58 1h-44c-2.757 0-5 2.243-5 5v9h-3c-2.757 0-5 2.243-5 5v38c0 2.757 2.243 5 5 5h20c2.757 0 5-2.243 5-5v-3h20c1.654 0 3-1.346 3-3v-2c0-1.654-1.346-3-3-3h-4.666c-1.299-.959-2.128-2.405-2.296-4h13.962c2.757 0 5-2.243 5-5v-32c0-2.757-2.243-5-5-5zm-45 19v-3h6v3c0 1.654-1.346 3-3 3s-3-1.346-3-3zm16 3h-9.026c.635-.838 1.026-1.87 1.026-3v-3h5c1.654 0 3 1.346 3 3zm0 2v28h-26v-28zm-3-10h-11v-8h42v26h-26v-13c0-2.757-2.243-5-5-5zm-20 2h5v3c0 1.13.391 2.162 1.026 3h-9.026v-3c0-1.654 1.346-3 3-3zm20 44h-20c-1.654 0-3-1.346-3-3v-3h26v3c0 1.654-1.346 3-3 3zm26-11v2c0 .552-.449 1-1 1h-20v-4h20c.551 0 1 .448 1 1zm-8.471-3h-12.529v-4h11.037c.115 1.464.635 2.845 1.492 4zm17.471-9c0 1.654-1.346 3-3 3h-27v-6h26c1.103 0 2-.897 2-2v-26c0-1.103-.897-2-2-2h-42c-1.103 0-2 .897-2 2v8h-2v-9c0-1.654 1.346-3 3-3h44c1.654 0 3 1.346 3 3z"/><path d="m38 23.101c1.654 0 3-1.346 3-3s-1.346-3-3-3-3 1.346-3 3 1.346 3 3 3zm0-4c.551 0 1 .449 1 1s-.449 1-1 1-1-.449-1-1 .449-1 1-1z"/><path d="m42.95 25.05c2.729-2.729 2.729-7.17 0-9.899l-1.414 1.414c1.949 1.95 1.949 5.122 0 7.071z"/><path d="m44.364 26.464 1.414 1.414c4.289-4.289 4.289-11.267 0-15.556l-1.414 1.414c3.509 3.51 3.509 9.219 0 12.728z"/><path d="m47.192 29.293 1.414 1.414c5.849-5.848 5.849-15.365 0-21.213l-1.414 1.414c5.069 5.069 5.069 13.316 0 18.385z"/><path d="m21 26.234v9.533l7.944-4.767zm2 3.532 2.056 1.234-2.056 1.234z"/><path d="m11 35.767v-9.533l-7.944 4.766zm-2-3.533-2.056-1.234 2.056-1.234z"/><path d="m17 27h2v8h-2z"/><path d="m13 27h2v8h-2z"/><path d="m8 37c-1.654 0-3 1.346-3 3s1.346 3 3 3 3-1.346 3-3-1.346-3-3-3zm0 4c-.551 0-1-.448-1-1s.449-1 1-1 1 .448 1 1-.449 1-1 1z"/><path d="m8 45c-1.654 0-3 1.346-3 3s1.346 3 3 3 3-1.346 3-3-1.346-3-3-3zm0 4c-.551 0-1-.448-1-1s.449-1 1-1 1 .448 1 1-.449 1-1 1z"/><path d="m16 43c1.654 0 3-1.346 3-3s-1.346-3-3-3-3 1.346-3 3 1.346 3 3 3zm0-4c.551 0 1 .448 1 1s-.449 1-1 1-1-.448-1-1 .449-1 1-1z"/><path d="m16 51c1.654 0 3-1.346 3-3s-1.346-3-3-3-3 1.346-3 3 1.346 3 3 3zm0-4c.551 0 1 .448 1 1s-.449 1-1 1-1-.448-1-1 .449-1 1-1z"/><path d="m24 43c1.654 0 3-1.346 3-3s-1.346-3-3-3-3 1.346-3 3 1.346 3 3 3zm0-4c.551 0 1 .448 1 1s-.449 1-1 1-1-.448-1-1 .449-1 1-1z"/><path d="m24 51c1.654 0 3-1.346 3-3s-1.346-3-3-3-3 1.346-3 3 1.346 3 3 3zm0-4c.551 0 1 .448 1 1s-.449 1-1 1-1-.448-1-1 .449-1 1-1z"/><path d="m25 9h2v2h-2z"/><path d="m17 9h2v2h-2z"/><path d="m21 9h2v2h-2z"/></g></g></svg>